<?xml version="1.0" encoding="utf-8"?>
<!-- Generator: Adobe Illustrator 17.0.0, SVG Export Plug-In . SVG Version: 6.00 Build 0)  -->
<!DOCTYPE svg PUBLIC "-//W3C//DTD SVG 1.1//EN" "http://www.w3.org/Graphics/SVG/1.1/DTD/svg11.dtd">
<svg version="1.1" id="Lager_1" xmlns="http://www.w3.org/2000/svg" xmlns:xlink="http://www.w3.org/1999/xlink" x="0px" y="0px"
	 width="96px" height="96px" viewBox="0 0 96 96" enable-background="new 0 0 96 96" xml:space="preserve">
<g id="Lager_1_1_" display="none">
	<path display="inline" d="M48,0C21.488,0,0,21.49,0,48c0,26.511,21.488,48,48,48c26.51,0,48-21.489,48-48C96,21.49,74.51,0,48,0z
		 M67.521,39.322c0.02,0.406,0.027,0.814,0.027,1.224c0,12.493-9.51,26.899-26.898,26.899c-5.338,0-10.307-1.566-14.49-4.249
		c0.738,0.089,1.49,0.133,2.254,0.133c4.43,0,8.506-1.511,11.742-4.048c-4.137-0.075-7.629-2.809-8.832-6.564
		c0.578,0.109,1.17,0.17,1.779,0.17c0.861,0,1.697-0.116,2.49-0.332c-4.324-0.869-7.584-4.689-7.584-9.271
		c0-0.04,0-0.079,0.002-0.118c1.273,0.708,2.732,1.133,4.281,1.183c-2.537-1.696-4.205-4.589-4.205-7.87
		c0-1.732,0.465-3.355,1.279-4.752c4.662,5.72,11.629,9.483,19.486,9.878c-0.162-0.692-0.244-1.414-0.244-2.155
		c0-5.221,4.232-9.453,9.453-9.453c2.719,0,5.176,1.149,6.9,2.985c2.154-0.424,4.178-1.21,6.004-2.294
		c-0.707,2.207-2.205,4.061-4.156,5.23c1.912-0.229,3.734-0.736,5.43-1.488C70.973,36.324,69.369,37.99,67.521,39.322z"/>
</g>
<g id="Lager_2" display="none">
	<path display="inline" d="M48.172,0.474c-26.51,0-48,21.49-48,48c0,26.511,21.49,48,48,48s48-21.489,48-48
		C96.172,21.964,74.682,0.474,48.172,0.474z M59.541,33.644h-7.217c-0.854,0-1.805,1.121-1.805,2.623v5.211h9.021v7.428h-9.021
		v22.306H42V48.905h-7.723v-7.428H42v-4.372c0-6.269,4.352-11.368,10.324-11.368h7.217V33.644z"/>
</g>
<g id="Lager_3" display="none">
	<path display="inline" d="M48.186,0.474c-26.51,0-48,21.49-48,48c0,26.511,21.49,48,48,48c26.511,0,48-21.489,48-48
		C96.186,21.964,74.698,0.474,48.186,0.474z M36.439,68.366h-9.723V37.089h9.723V68.366z M31.513,33.251
		c-3.07,0-5.053-2.174-5.053-4.859c0-2.751,2.047-4.861,5.18-4.861c3.136,0,5.055,2.11,5.117,4.861
		C36.757,31.077,34.776,33.251,31.513,33.251z M71.934,68.366h-9.722V51.032c0-4.029-1.408-6.779-4.925-6.779
		c-2.687,0-4.284,1.855-4.988,3.646c-0.256,0.639-0.322,1.535-0.322,2.43v18.037h-9.72V47.067c0-3.901-0.127-7.163-0.256-9.978
		h8.442l0.448,4.35h0.191c1.279-2.047,4.413-5.053,9.659-5.053c6.396,0,11.191,4.285,11.191,13.495v18.485H71.934z"/>
</g>
<g id="Lager_5" display="none">
	<path display="inline" d="M74.305,48.474c0,14.361-11.643,26-26,26c-14.361,0-26-11.639-26-26c0-1.711,0.17-3.382,0.484-5H5.305
		v34.562c0,7.422,6.012,13.438,13.438,13.438h59.125c7.418,0,13.438-6.016,13.438-13.438V43.474H73.818
		C74.135,45.092,74.305,46.763,74.305,48.474z M77.867,5.474H18.742c-7.426,0-13.438,6.018-13.438,13.438v14.562h21.768
		c4.709-6.653,12.461-11,21.232-11c8.77,0,16.521,4.347,21.229,11h21.771V18.912C91.305,11.491,85.285,5.474,77.867,5.474z
		 M84.435,22.073c0,1.321-1.078,2.4-2.398,2.4h-7.201c-1.318,0-2.4-1.079-2.4-2.4v-7.199c0-1.321,1.082-2.4,2.4-2.4h7.201
		c1.32,0,2.398,1.079,2.398,2.4C84.435,14.874,84.435,22.073,84.435,22.073z M64.305,48.474c0-8.837-7.164-16-16-16
		c-8.838,0-16,7.163-16,16s7.162,16,16,16C57.141,64.474,64.305,57.311,64.305,48.474z"/>
</g>
<g>
	<path d="M55.334,55.616c-7.917,7.917-17.085,15.485-20.708,11.861c-5.189-5.189-8.388-9.707-19.825-0.515
		c-11.438,9.196-2.653,15.323,2.373,20.351c5.8,5.799,27.421,0.305,48.792-21.064c21.368-21.372,26.866-42.992,21.062-48.794
		c-5.027-5.027-11.154-13.809-20.346-2.371c-9.194,11.434-4.677,14.634,0.513,19.823C70.818,38.531,63.251,47.698,55.334,55.616z"/>
</g>
</svg>
